# This file uses centimeters as units for non-parametric coordinates.

mtllib bushes.mtl
g default
v -0.299069 -0.436836 -0.126416
v -0.253998 -0.261169 -0.141234
v -0.363678 -0.325304 -0.010978
v -0.310578 -0.471048 0.057341
v -0.168079 -0.496988 -0.030691
v -0.133111 -0.367275 -0.153417
v -0.095151 -0.212751 -0.054667
v -0.237649 -0.186812 0.033365
v -0.272618 -0.316524 0.156091
v -0.151731 -0.422631 0.143908
v -0.042050 -0.358496 0.013651
v -0.106659 -0.246963 0.129090
v -0.017035 -0.295250 0.087681
v 0.150356 -0.350184 0.069745
v 0.157309 -0.204843 0.112660
v 0.015470 -0.220643 0.228731
v -0.079145 -0.375749 0.257551
v 0.004219 -0.455810 0.159292
v 0.191700 -0.464634 0.228528
v 0.286315 -0.309528 0.199708
v 0.202950 -0.229467 0.297967
v 0.056813 -0.335093 0.387514
v 0.049860 -0.480435 0.344599
v 0.224205 -0.390028 0.369578
v 0.138159 -0.229608 -0.200931
v 0.175578 -0.311665 -0.065559
v 0.042539 -0.335222 -0.186118
v 0.069124 -0.309829 -0.338518
v 0.218594 -0.270578 -0.312147
v 0.284386 -0.271713 -0.143448
v 0.279138 -0.403350 -0.093109
v 0.129668 -0.442601 -0.119481
v 0.063877 -0.441466 -0.288178
v 0.172684 -0.401514 -0.366069
v 0.305724 -0.377957 -0.245509
v 0.210103 -0.483571 -0.230696
vt 0.579188 0.220235
vt 0.597584 0.287840
vt 0.545386 0.257026
vt 0.615979 0.220235
vt 0.597584 0.152630
vt 0.545386 0.183444
vt 0.493188 0.287840
vt 0.388792 0.287840
vt 0.407188 0.220235
vt 0.440990 0.257026
vt 0.388792 0.152630
vt 0.440990 0.183444
vt 0.493188 0.152630
vt 0.511583 0.220235
vt 0.474793 0.220235
vt 0.579188 0.220235
vt 0.597584 0.287840
vt 0.545386 0.257026
vt 0.615979 0.220235
vt 0.597584 0.152630
vt 0.545386 0.183444
vt 0.493188 0.287840
vt 0.388792 0.287840
vt 0.407188 0.220235
vt 0.440990 0.257026
vt 0.388792 0.152630
vt 0.440990 0.183444
vt 0.493188 0.152630
vt 0.511583 0.220235
vt 0.474793 0.220235
vt 0.579188 0.220235
vt 0.597584 0.287840
vt 0.545386 0.257026
vt 0.615979 0.220235
vt 0.597584 0.152630
vt 0.545386 0.183444
vt 0.493188 0.287840
vt 0.388792 0.287840
vt 0.407188 0.220235
vt 0.440990 0.257026
vt 0.388792 0.152630
vt 0.440990 0.183444
vt 0.493188 0.152630
vt 0.511583 0.220235
vt 0.474793 0.220235
vn -0.791790 0.153282 -0.591247
vn -0.791790 0.153282 -0.591247
vn -0.791790 0.153282 -0.591247
vn -0.910414 -0.392700 -0.130128
vn -0.910414 -0.392700 -0.130128
vn -0.910414 -0.392700 -0.130128
vn -0.289700 -0.937521 -0.192687
vn -0.289700 -0.937521 -0.192687
vn -0.289700 -0.937521 -0.192687
vn 0.181765 -0.701238 -0.689367
vn 0.181765 -0.701238 -0.689367
vn 0.181765 -0.701238 -0.689367
vn -0.141100 -0.047208 -0.988869
vn -0.141100 -0.047208 -0.988869
vn -0.141100 -0.047208 -0.988869
vn -0.681342 0.694267 -0.231876
vn -0.681342 0.694267 -0.231876
vn -0.681342 0.694267 -0.231876
vn -0.872216 -0.092656 0.480264
vn -0.872216 -0.092656 0.480264
vn -0.872216 -0.092656 0.480264
vn 0.070507 -0.920114 0.385251
vn 0.070507 -0.920114 0.385251
vn 0.070507 -0.920114 0.385251
vn 0.742193 -0.555215 -0.375348
vn 0.742193 -0.555215 -0.375348
vn 0.742193 -0.555215 -0.375348
vn 0.315274 0.454830 -0.832906
vn 0.315274 0.454830 -0.832906
vn 0.315274 0.454830 -0.832906
vn -0.070507 0.920114 -0.385251
vn -0.070507 0.920114 -0.385251
vn -0.070507 0.920114 -0.385251
vn -0.742193 0.555215 0.375348
vn -0.742193 0.555215 0.375348
vn -0.742193 0.555215 0.375348
vn -0.315275 -0.454830 0.832905
vn -0.315274 -0.454830 0.832906
vn -0.315275 -0.454830 0.832905
vn 0.681343 -0.694266 0.231876
vn 0.681343 -0.694266 0.231876
vn 0.681342 -0.694267 0.231876
vn 0.872216 0.092656 -0.480264
vn 0.872216 0.092656 -0.480264
vn 0.872216 0.092656 -0.480264
vn 0.289699 0.937521 0.192687
vn 0.289699 0.937521 0.192687
vn 0.289699 0.937521 0.192687
vn -0.181765 0.701238 0.689367
vn -0.181765 0.701238 0.689367
vn -0.181764 0.701238 0.689367
vn 0.141100 0.047208 0.988869
vn 0.141100 0.047208 0.988869
vn 0.141100 0.047208 0.988869
vn 0.791790 -0.153282 0.591247
vn 0.791790 -0.153282 0.591247
vn 0.791790 -0.153282 0.591247
vn 0.910414 0.392700 0.130128
vn 0.910414 0.392700 0.130128
vn 0.910414 0.392700 0.130128
vn -0.009678 0.283601 -0.958894
vn -0.009678 0.283601 -0.958894
vn -0.009678 0.283601 -0.958894
vn -0.388524 0.848510 -0.359276
vn -0.388524 0.848510 -0.359276
vn -0.388524 0.848510 -0.359276
vn -0.857379 0.509627 -0.071980
vn -0.857379 0.509627 -0.071980
vn -0.857379 0.509627 -0.071980
vn -0.834672 -0.312695 -0.453370
vn -0.834672 -0.312695 -0.453370
vn -0.834672 -0.312695 -0.453370
vn -0.232301 -0.421668 -0.876489
vn -0.232301 -0.421669 -0.876488
vn -0.232301 -0.421669 -0.876488
vn 0.649098 0.186695 -0.737440
vn 0.649098 0.186695 -0.737440
vn 0.649098 0.186695 -0.737440
vn -0.002188 0.991213 0.132258
vn -0.002188 0.991213 0.132258
vn -0.002188 0.991213 0.132258
vn -0.669459 0.508917 0.541136
vn -0.669459 0.508917 0.541136
vn -0.669459 0.508917 0.541136
vn -0.653303 -0.754665 0.060622
vn -0.653303 -0.754665 0.060622
vn -0.653303 -0.754665 0.060622
vn 0.187415 -0.773059 -0.606016
vn 0.187415 -0.773059 -0.606016
vn 0.187415 -0.773059 -0.606016
vn 0.669459 -0.508918 -0.541136
vn 0.669459 -0.508918 -0.541136
vn 0.669459 -0.508918 -0.541136
vn 0.653303 0.754666 -0.060622
vn 0.653303 0.754665 -0.060622
vn 0.653303 0.754665 -0.060622
vn -0.187415 0.773059 0.606016
vn -0.187415 0.773059 0.606016
vn -0.187415 0.773059 0.606016
vn -0.649098 -0.186695 0.737440
vn -0.649098 -0.186695 0.737440
vn -0.649098 -0.186695 0.737440
vn 0.002189 -0.991213 -0.132258
vn 0.002189 -0.991213 -0.132258
vn 0.002189 -0.991213 -0.132258
vn 0.857379 -0.509627 0.071980
vn 0.857379 -0.509627 0.071980
vn 0.857379 -0.509627 0.071980
vn 0.834672 0.312695 0.453370
vn 0.834672 0.312695 0.453370
vn 0.834672 0.312695 0.453370
vn 0.232301 0.421668 0.876489
vn 0.232301 0.421668 0.876489
vn 0.232301 0.421669 0.876488
vn 0.009678 -0.283601 0.958894
vn 0.009678 -0.283601 0.958894
vn 0.009678 -0.283601 0.958894
vn 0.388524 -0.848510 0.359276
vn 0.388524 -0.848510 0.359276
vn 0.388524 -0.848510 0.359276
vn -0.589445 0.608230 0.531612
vn -0.589445 0.608230 0.531612
vn -0.589445 0.608230 0.531612
vn -0.742441 0.669672 -0.017936
vn -0.742441 0.669672 -0.017936
vn -0.742441 0.669672 -0.017936
vn -0.155145 0.885313 -0.438350
vn -0.155145 0.885313 -0.438350
vn -0.155145 0.885313 -0.438350
vn 0.317116 0.941099 -0.117348
vn 0.317116 0.941099 -0.117348
vn 0.317116 0.941099 -0.117348
vn 0.047914 0.859996 0.508047
vn 0.047914 0.859996 0.508047
vn 0.047914 0.859996 0.508047
vn -0.662314 -0.074779 0.745485
vn -0.662314 -0.074779 0.745485
vn -0.662314 -0.074779 0.745485
vn -0.983925 -0.028208 -0.176340
vn -0.983925 -0.028208 -0.176340
vn -0.983925 -0.028208 -0.176340
vn 0.070008 0.358772 -0.930796
vn 0.070008 0.358772 -0.930796
vn 0.070008 0.358772 -0.930796
vn 0.823094 0.470630 -0.317843
vn 0.823094 0.470630 -0.317843
vn 0.823094 0.470630 -0.317843
vn 0.481661 0.296203 0.824783
vn 0.481661 0.296203 0.824783
vn 0.481661 0.296203 0.824783
vn -0.070008 -0.358772 0.930796
vn -0.070008 -0.358772 0.930796
vn -0.070008 -0.358772 0.930796
vn -0.823095 -0.470629 0.317843
vn -0.823095 -0.470629 0.317843
vn -0.823095 -0.470629 0.317843
vn -0.481661 -0.296203 -0.824782
vn -0.481661 -0.296203 -0.824782
vn -0.481661 -0.296203 -0.824782
vn 0.662314 0.074780 -0.745485
vn 0.662314 0.074780 -0.745485
vn 0.662314 0.074780 -0.745485
vn 0.983925 0.028207 0.176340
vn 0.983925 0.028207 0.176340
vn 0.983925 0.028207 0.176340
vn 0.155146 -0.885313 0.438350
vn 0.155146 -0.885313 0.438350
vn 0.155146 -0.885313 0.438350
vn -0.317116 -0.941099 0.117348
vn -0.317116 -0.941099 0.117348
vn -0.317116 -0.941099 0.117348
vn -0.047914 -0.859995 -0.508048
vn -0.047914 -0.859995 -0.508048
vn -0.047914 -0.859995 -0.508048
vn 0.589445 -0.608230 -0.531612
vn 0.589445 -0.608230 -0.531612
vn 0.589445 -0.608230 -0.531612
vn 0.742441 -0.669672 0.017936
vn 0.742441 -0.669672 0.017936
vn 0.742441 -0.669672 0.017936
s off
g bushes
usemtl initialShadingGroup
f 1/1/1 3/2/2 2/3/3
f 1/1/4 4/4/5 3/2/6
f 1/1/7 5/5/8 4/4/9
f 1/1/10 6/6/11 5/5/12
f 1/1/13 2/3/14 6/6/15
f 2/3/16 3/2/17 8/7/18
f 3/8/19 4/9/20 9/10/21
f 4/9/22 5/11/23 10/12/24
f 5/5/25 6/6/26 11/13/27
f 6/6/28 2/3/29 7/14/30
f 2/3/31 8/7/32 7/14/33
f 3/8/34 9/10/35 8/7/36
f 4/9/37 10/12/38 9/10/39
f 5/11/40 11/13/41 10/12/42
f 6/6/43 7/14/44 11/13/45
f 7/14/46 8/7/47 12/15/48
f 8/7/49 9/10/50 12/15/51
f 9/10/52 10/12/53 12/15/54
f 10/12/55 11/13/56 12/15/57
f 11/13/58 7/14/59 12/15/60
f 13/16/61 15/17/62 14/18/63
f 13/16/64 16/19/65 15/17/66
f 13/16/67 17/20/68 16/19/69
f 13/16/70 18/21/71 17/20/72
f 13/16/73 14/18/74 18/21/75
f 14/18/76 15/17/77 20/22/78
f 15/23/79 16/24/80 21/25/81
f 16/24/82 17/26/83 22/27/84
f 17/20/85 18/21/86 23/28/87
f 18/21/88 14/18/89 19/29/90
f 14/18/91 20/22/92 19/29/93
f 15/23/94 21/25/95 20/22/96
f 16/24/97 22/27/98 21/25/99
f 17/26/100 23/28/101 22/27/102
f 18/21/103 19/29/104 23/28/105
f 19/29/106 20/22/107 24/30/108
f 20/22/109 21/25/110 24/30/111
f 21/25/112 22/27/113 24/30/114
f 22/27/115 23/28/116 24/30/117
f 23/28/118 19/29/119 24/30/120
f 25/31/121 27/32/122 26/33/123
f 25/31/124 28/34/125 27/32/126
f 25/31/127 29/35/128 28/34/129
f 25/31/130 30/36/131 29/35/132
f 25/31/133 26/33/134 30/36/135
f 26/33/136 27/32/137 32/37/138
f 27/38/139 28/39/140 33/40/141
f 28/39/142 29/41/143 34/42/144
f 29/35/145 30/36/146 35/43/147
f 30/36/148 26/33/149 31/44/150
f 26/33/151 32/37/152 31/44/153
f 27/38/154 33/40/155 32/37/156
f 28/39/157 34/42/158 33/40/159
f 29/41/160 35/43/161 34/42/162
f 30/36/163 31/44/164 35/43/165
f 31/44/166 32/37/167 36/45/168
f 32/37/169 33/40/170 36/45/171
f 33/40/172 34/42/173 36/45/174
f 34/42/175 35/43/176 36/45/177
f 35/43/178 31/44/179 36/45/180
