# This file uses centimeters as units for non-parametric coordinates.

mtllib granary.mtl
g default
v 0.383022 -0.500000 -0.321394
v 0.086824 -0.500000 -0.492404
v -0.250000 -0.500000 -0.433013
v -0.469846 -0.500000 -0.171010
v -0.469846 -0.500000 0.171010
v -0.250000 -0.500000 0.433013
v 0.086824 -0.500000 0.492404
v 0.383022 -0.500000 0.321394
v 0.500000 -0.500000 0.000000
v 0.437038 0.449745 -0.368575
v 0.097357 0.449745 -0.564690
v -0.288914 0.449745 -0.496580
v -0.541034 0.449745 -0.196115
v -0.541034 0.449745 0.196115
v -0.288914 0.449745 0.496580
v 0.097357 0.449745 0.564690
v 0.437037 0.449745 0.368575
v 0.571188 0.449745 0.000000
v 0.000000 -0.500000 0.000000
v 0.000000 0.961053 0.000000
v 0.383022 0.449745 0.321394
v 0.086824 0.449745 0.492404
v -0.250000 0.449745 0.433013
v -0.469846 0.449745 0.171010
v -0.469846 0.449745 -0.171010
v -0.250000 0.449745 -0.433013
v 0.086824 0.449745 -0.492404
v 0.383022 0.449745 -0.321394
v 0.500000 0.449745 0.000000
vt 0.592793 0.613149
vt 0.647598 0.613149
vt 0.647598 0.773326
vt 0.592793 0.773326
vt 0.699989 0.613149
vt 0.699989 0.773326
vt 0.540022 0.613149
vt 0.540022 0.773326
vt 0.755374 0.588767
vt 0.809578 0.588767
vt 0.809578 0.748943
vt 0.755374 0.748943
vt 0.863782 0.588767
vt 0.863782 0.748943
vt 0.892623 0.588767
vt 0.892623 0.748943
vt 0.726587 0.001992
vt 0.823307 0.057834
vt 0.698235 0.162781
vt 0.861505 0.162781
vt 0.616600 0.021386
vt 0.823307 0.267729
vt 0.544812 0.106940
vt 0.726587 0.323571
vt 0.544812 0.218623
vt 0.616600 0.304177
vt 0.380523 0.347175
vt 0.477243 0.291333
vt 0.494881 0.306740
vt 0.383962 0.370779
vt 0.515441 0.186386
vt 0.538686 0.186386
vt 0.270536 0.327781
vt 0.257829 0.348538
vt 0.477243 0.081438
vt 0.494881 0.066031
vt 0.198748 0.242227
vt 0.175502 0.250425
vt 0.380523 0.025596
vt 0.383962 0.001992
vt 0.198748 0.130544
vt 0.175502 0.122346
vt 0.270536 0.044990
vt 0.257829 0.024233
vt 0.722194 0.908529
vt 0.779000 0.908529
vt 0.779000 0.748352
vt 0.722194 0.748352
vt 0.443410 0.775126
vt 0.495422 0.775126
vt 0.495422 0.935302
vt 0.443410 0.935302
vt 0.550171 0.775126
vt 0.550171 0.935302
vt 0.001740 0.306740
vt 0.001740 0.186385
vt 0.168702 0.186385
vt 0.001740 0.066031
vt 0.001740 0.370779
vt 0.001740 0.001992
vt 0.001740 0.348538
vt 0.001740 0.024233
vt 0.001740 0.250425
vt 0.001740 0.122346
vn 0.500000 0.000000 -0.866025
vn 0.500000 0.000000 -0.866025
vn 0.497749 -0.094778 -0.862127
vn 0.497862 -0.092384 -0.862322
vn -0.173648 0.000000 -0.984808
vn -0.173648 0.000000 -0.984808
vn -0.172835 -0.096638 -0.980199
vn -0.172881 -0.093903 -0.980456
vn -0.766044 0.000000 -0.642788
vn -0.766044 0.000000 -0.642788
vn -0.762383 -0.097661 -0.639715
vn -0.762516 -0.095869 -0.639827
vn -1.000000 0.000000 -0.000000
vn -1.000000 0.000000 -0.000000
vn -0.995250 -0.097357 -0.000000
vn -0.995250 -0.097357 -0.000000
vn -0.766044 0.000000 0.642788
vn -0.766044 0.000000 0.642788
vn -0.762516 -0.095869 0.639827
vn -0.762383 -0.097661 0.639715
vn -0.173648 0.000000 0.984808
vn -0.173648 0.000000 0.984808
vn -0.172881 -0.093903 0.980456
vn -0.172835 -0.096638 0.980199
vn 0.500000 0.000000 0.866025
vn 0.500000 0.000000 0.866025
vn 0.497862 -0.092384 0.862322
vn 0.497749 -0.094778 0.862127
vn 0.939693 0.000000 0.342020
vn 0.939693 0.000000 0.342020
vn 0.935706 -0.092013 0.340569
vn 0.935624 -0.092956 0.340539
vn 0.939693 0.000000 -0.342020
vn 0.939693 0.000000 -0.342020
vn 0.935624 -0.092956 -0.340539
vn 0.935706 -0.092013 -0.340569
vn 0.000000 -1.000000 0.000000
vn 0.000000 -1.000000 0.000000
vn 0.000000 -1.000000 0.000000
vn 0.000000 -1.000000 0.000000
vn 0.000000 -1.000000 0.000000
vn 0.000000 -1.000000 0.000000
vn 0.000000 -1.000000 0.000000
vn 0.000000 -1.000000 0.000000
vn 0.000000 -1.000000 0.000000
vn 0.000000 -1.000000 0.000000
vn 0.510459 0.745383 -0.428761
vn 0.115111 0.746142 -0.655761
vn 0.000981 1.000000 0.000000
vn -0.332798 0.747000 -0.575531
vn -0.624200 0.747558 -0.227003
vn -0.624200 0.747558 0.227003
vn -0.332798 0.747000 0.575531
vn 0.115111 0.746142 0.655761
vn 0.510459 0.745383 0.428761
vn 0.666972 0.745082 0.000000
vn 0.000000 -1.000000 -0.000000
vn 0.000000 -1.000000 -0.000000
vn 0.000000 -1.000000 -0.000001
vn 0.000000 -1.000000 -0.000001
vn 0.000000 -1.000000 -0.000000
vn 0.000000 -1.000000 -0.000000
vn 0.000000 -1.000000 0.000000
vn 0.000000 -1.000000 0.000000
vn 0.000000 -1.000000 0.000000
vn 0.000000 -1.000000 0.000000
vn 0.000000 -1.000000 0.000001
vn 0.000000 -1.000000 0.000001
vn 0.000000 -1.000000 0.000000
vn 0.000000 -1.000000 0.000000
vn 0.000000 -1.000000 0.000000
vn 0.000000 -1.000000 0.000000
vn 0.000000 -1.000000 0.000000
vn 0.000000 -1.000000 0.000000
s 1
g pCylinder1
usemtl lambert7SG
f 1/13/1 2/15/2 27/16/3 28/14/4
s 2
f 2/45/5 3/46/6 26/47/7 27/48/8
s 3
f 3/7/9 4/1/10 25/4/11 26/8/12
s 4
f 4/1/13 5/2/14 24/3/15 25/4/16
s 5
f 5/2/17 6/5/18 23/6/19 24/3/20
s 6
f 6/49/21 7/50/22 22/51/23 23/52/24
s 7
f 7/50/25 8/53/26 21/54/27 22/51/28
s 8
f 8/9/29 9/10/30 29/11/31 21/12/32
s 9
f 9/10/33 1/13/34 28/14/35 29/11/36
s 10
f 2/17/37 1/18/38 19/19/39
f 3/21/40 2/17/37 19/19/39
f 4/23/41 3/21/40 19/19/39
f 5/25/42 4/23/41 19/19/39
f 6/26/43 5/25/42 19/19/39
f 7/24/44 6/26/43 19/19/39
f 8/22/45 7/24/44 19/19/39
f 9/20/46 8/22/45 19/19/39
f 1/18/38 9/20/46 19/19/39
s 11
f 10/58/47 11/60/48 20/57/49
f 11/60/48 12/62/50 20/57/49
f 12/62/50 13/64/51 20/57/49
f 13/64/51 14/63/52 20/57/49
f 14/63/52 15/61/53 20/57/49
f 15/61/53 16/59/54 20/57/49
f 16/59/54 17/55/55 20/57/49
f 17/55/55 18/56/56 20/57/49
f 18/56/56 10/58/47 20/57/49
s 7
f 22/27/28 21/28/27 17/29/57 16/30/58
s 6
f 23/33/24 22/27/23 16/30/59 15/34/60
s 5
f 24/37/20 23/33/19 15/34/61 14/38/62
s 4
f 25/41/16 24/37/15 14/38/63 13/42/64
s 3
f 26/43/12 25/41/11 13/42/65 12/44/66
s 2
f 27/39/8 26/43/7 12/44/67 11/40/68
s 1
f 28/35/4 27/39/3 11/40/69 10/36/70
s 9
f 29/31/36 28/35/35 10/36/71 18/32/72
s 8
f 21/28/32 29/31/31 18/32/73 17/29/74
