# This file uses centimeters as units for non-parametric coordinates.

mtllib island.mtl
g default
v -3.166072 0.496581 3.166072
v -3.001015 0.514965 3.166795
v -3.166795 0.514965 3.001015
v 3.166795 0.514965 3.001015
v 3.001015 0.514965 3.166795
v 3.166072 0.496581 3.166072
v -2.332174 0.646663 2.165826
v -2.165994 0.646726 2.331775
v -1.947947 0.714676 2.107807
v -2.107807 0.714676 1.947947
v 2.107807 0.714676 1.947947
v 1.938046 0.716512 2.103826
v 2.165826 0.646663 2.332174
v 2.332174 0.646663 2.165826
v -1.878422 0.820476 1.716309
v -1.715107 0.819339 1.880888
v -1.649425 0.870742 1.649425
v 1.649425 0.870742 1.649425
v 1.716309 0.820476 1.878422
v 1.878422 0.820476 1.716309
v -1.880888 0.819339 -1.715107
v -1.649425 0.870742 -1.649425
v -1.715107 0.819339 -1.880888
v 1.715107 0.819339 -1.880888
v 1.649425 0.870742 -1.649425
v 1.880888 0.819339 -1.715107
v -2.107807 0.714676 -1.947947
v -1.938046 0.716512 -2.103826
v -2.165826 0.646663 -2.332174
v -2.332174 0.646663 -2.165826
v 2.332174 0.646663 -2.165826
v 2.165994 0.646726 -2.331775
v 1.947947 0.714676 -2.107807
v 2.107807 0.714676 -1.947947
v -3.166795 0.514965 -3.001015
v -3.001015 0.514965 -3.166795
v -3.166072 0.496581 -3.166072
v 3.166072 0.496581 -3.166072
v 3.001015 0.514965 -3.166795
v 3.166795 0.514965 -3.001015
vt 0.017852 0.017852
vt 0.042988 0.017741
vt 0.982148 0.017852
vt 0.982258 0.042988
vt 0.170149 0.144903
vt 0.829825 0.144843
vt 0.203355 0.179011
vt 0.855157 0.170175
vt 0.820989 0.203355
vt 0.238813 0.213567
vt 0.761370 0.213943
vt 0.786057 0.238630
vt 0.179011 0.796645
vt 0.248816 0.751184
vt 0.751184 0.751184
vt 0.786433 0.761187
vt 0.820989 0.796645
vt 0.204863 0.820383
vt 0.796645 0.820989
vt 0.170175 0.855157
vt 0.017741 0.957012
vt 0.855157 0.829825
vt 0.982258 0.957012
vt 0.042988 0.982258
vt 0.957012 0.982258
vt 0.982148 0.982148
vt 0.957012 0.017741
vt 0.795137 0.179617
vt 0.248816 0.248816
vt 0.751184 0.248816
vt 0.238813 0.786433
vt 0.761187 0.786433
vt 0.829850 0.855096
vt 0.017852 0.982148
vt 0.017741 0.042988
vt 0.144843 0.170175
vt 0.144843 0.829825
vt 0.179011 0.203355
vt 0.213943 0.238630
vt 0.213567 0.761187
vn -0.999228 -0.039288 0.000000
vn -0.999228 -0.039288 0.000000
vn -0.999228 -0.039288 0.000000
vn -0.999228 -0.039288 0.000000
vn 0.000000 -0.039289 0.999228
vn 0.000000 -0.039289 0.999228
vn 0.000000 -0.039289 0.999228
vn 0.000000 -0.039289 0.999228
vn -0.148036 0.988948 0.008195
vn -0.008203 0.988949 0.148029
vn -0.004545 0.986233 0.165298
vn -0.165103 0.986266 0.004535
vn 0.999228 -0.039288 0.000000
vn 0.999228 -0.039288 0.000000
vn 0.999228 -0.039288 0.000000
vn 0.999228 -0.039288 0.000000
vn 0.008204 0.988950 0.148025
vn 0.148023 0.988950 0.008206
vn 0.165088 0.986268 0.004579
vn 0.004571 0.986249 0.165202
vn -0.325544 0.945431 0.013437
vn -0.325116 0.945577 -0.013553
vn -0.165088 0.986268 -0.004579
vn -0.013416 0.945376 0.325707
vn 0.013313 0.945161 0.326335
vn -0.010526 0.941205 0.337673
vn -0.337964 0.941101 0.010445
vn 0.325364 0.945492 0.013513
vn 0.165103 0.986266 -0.004535
vn 0.325377 0.945489 -0.013433
vn 0.338062 0.941065 0.010506
vn 0.010475 0.941283 0.337456
vn -0.015409 0.999763 0.015344
vn -0.015350 0.999762 -0.015523
vn -0.338083 0.941057 -0.010572
vn 0.015392 0.999763 0.015392
vn 0.338077 0.941060 -0.010489
vn 0.015350 0.999762 -0.015523
vn -0.010529 0.941343 -0.337286
vn -0.013380 0.945306 -0.325911
vn 0.010536 0.941306 -0.337389
vn 0.013486 0.945463 -0.325449
vn -0.004571 0.986249 -0.165202
vn 0.004545 0.986233 -0.165298
vn -0.008204 0.988950 -0.148025
vn -0.148023 0.988950 -0.008206
vn 0.148036 0.988948 -0.008195
vn 0.008203 0.988949 -0.148029
vn 0.000000 -0.039289 -0.999228
vn 0.000000 -0.039289 -0.999228
vn 0.000000 -0.039289 -0.999228
vn 0.000000 -0.039289 -0.999228
vn 0.000000 -1.000000 0.000000
vn 0.000000 -1.000000 0.000000
vn 0.000000 -1.000000 0.000000
vn 0.000000 -1.000000 0.000000
vn -0.110490 0.987716 0.110490
vn 0.110490 0.987716 0.110490
vn -0.110490 0.987716 -0.110490
vn 0.110490 0.987716 -0.110490
s off
g pCube2
usemtl initialShadingGroup
f 1/1/1 3/35/2 35/21/3 37/34/4
f 2/2/5 1/1/6 6/3/7 5/27/8
s 1
f 3/35/9 2/2/10 8/5/11 7/36/12
s off
f 4/4/13 6/3/14 38/26/15 40/23/16
s 1
f 5/27/17 4/4/18 14/8/19 13/6/20
f 7/36/12 10/38/21 27/13/22 30/37/23
f 9/7/24 8/5/11 13/6/20 12/28/25
f 10/38/21 9/7/24 16/10/26 15/39/27
f 11/9/28 14/8/19 31/22/29 34/17/30
f 12/28/25 11/9/28 20/12/31 19/11/32
f 15/39/27 17/29/33 22/14/34 21/40/35
f 17/29/33 16/10/26 19/11/32 18/30/36
f 18/30/36 20/12/31 26/16/37 25/15/38
f 21/40/35 23/31/39 28/18/40 27/13/22
f 23/31/39 22/14/34 25/15/38 24/32/41
f 24/32/41 26/16/37 34/17/30 33/19/42
f 29/20/43 28/18/40 33/19/42 32/33/44
f 30/37/23 29/20/43 36/24/45 35/21/46
f 32/33/44 31/22/29 40/23/47 39/25/48
s off
f 37/34/49 36/24/50 39/25/51 38/26/52
s 1
f 2/2/10 5/27/17 13/6/20 8/5/11
f 9/7/24 12/28/25 19/11/32 16/10/26
f 17/29/33 18/30/36 25/15/38 22/14/34
f 23/31/39 24/32/41 33/19/42 28/18/40
f 29/20/43 32/33/44 39/25/48 36/24/45
s off
f 37/34/53 38/26/54 6/3/55 1/1/56
s 1
f 4/4/18 40/23/47 31/22/29 14/8/19
f 11/9/28 34/17/30 26/16/37 20/12/31
f 35/21/46 3/35/9 7/36/12 30/37/23
f 27/13/22 10/38/21 15/39/27 21/40/35
f 1/1/57 2/2/10 3/35/9
f 4/4/18 5/27/17 6/3/58
f 7/36/12 8/5/11 9/7/24 10/38/21
f 11/9/28 12/28/25 13/6/20 14/8/19
f 15/39/27 16/10/26 17/29/33
f 18/30/36 19/11/32 20/12/31
f 21/40/35 22/14/34 23/31/39
f 24/32/41 25/15/38 26/16/37
f 27/13/22 28/18/40 29/20/43 30/37/23
f 31/22/29 32/33/44 33/19/42 34/17/30
f 35/21/46 36/24/45 37/34/59
f 38/26/60 39/25/48 40/23/47
