# This file uses centimeters as units for non-parametric coordinates.

mtllib mountain.mtl
g default
v -0.500000 -0.500000 0.500000
v -0.300000 -0.500000 0.500000
v -0.100000 -0.500000 0.500000
v 0.100000 -0.500000 0.500000
v 0.300000 -0.500000 0.500000
v 0.500000 -0.500000 0.500000
v -0.500000 -0.500000 0.300000
v -0.300000 0.222170 0.300000
v -0.100000 -0.394289 0.358018
v 0.100000 -0.119193 0.331035
v 0.300000 -0.181316 0.203153
v 0.500000 -0.500000 0.300000
v -0.500000 -0.500000 0.100000
v -0.300000 -0.394289 0.100000
v -0.100000 -0.140607 0.100000
v 0.300000 -0.374585 0.100000
v 0.500000 -0.500000 0.100000
v -0.500000 -0.500000 -0.100000
v -0.100000 -0.140607 -0.100000
v 0.100000 -0.230326 -0.100000
v 0.300000 -0.230326 -0.100000
v 0.500000 -0.500000 -0.100000
v -0.500000 -0.500000 -0.300000
v -0.300000 -0.466514 -0.300000
v -0.100000 -0.354466 -0.300000
v 0.100000 -0.230326 -0.300000
v 0.500000 -0.500000 -0.300000
v -0.500000 -0.500000 -0.500000
v -0.300000 -0.500000 -0.500000
v -0.100000 -0.500000 -0.500000
v 0.100000 -0.500000 -0.500000
v 0.300000 -0.500000 -0.500000
v 0.500000 -0.500000 -0.500000
v 0.100000 0.466580 0.123103
v 0.090000 0.629454 0.090000
v 0.120000 0.629401 0.100000
v -0.300000 0.084964 -0.089321
v -0.320000 0.096411 -0.100000
v -0.308669 0.098183 -0.100000
v -0.300000 0.096411 -0.120000
v 0.300000 0.080593 -0.250000
v 0.250000 0.080593 -0.300000
v 0.350000 0.013174 -0.300000
v 0.300000 0.013174 -0.350000
v 0.410338 -0.472691 0.389662
v -0.411499 -0.485756 0.388501
v -0.398339 -0.472595 -0.401661
vt 0.409404 0.380553
vt 0.409404 0.344943
vt 0.435814 0.344943
vt 0.435814 0.412708
vt 0.429211 0.421610
vt 0.382994 0.361504
vt 0.382994 0.344943
vt 0.462224 0.344943
vt 0.369372 0.387025
vt 0.356583 0.344943
vt 0.384314 0.494088
vt 0.382994 0.494081
vt 0.409404 0.380553
vt 0.442416 0.412708
vt 0.344744 0.348549
vt 0.352485 0.395228
vt 0.379943 0.472580
vt 0.411133 0.507170
vt 0.396563 0.495330
vt 0.422973 0.495330
vt 0.396563 0.521740
vt 0.435762 0.521740
vt 0.396563 0.548150
vt 0.418875 0.548150
vt 0.396563 0.574560
vt 0.415312 0.574560
vt 0.429709 0.652416
vt 0.432351 0.651006
vt 0.431206 0.652416
vt 0.432351 0.655057
vt 0.432351 0.626006
vt 0.458761 0.626006
vt 0.458761 0.652416
vt 0.432351 0.599596
vt 0.458761 0.591935
vt 0.573540 0.537658
vt 0.573540 0.511248
vt 0.599950 0.511248
vt 0.599950 0.537658
vt 0.573540 0.484838
vt 0.593347 0.484838
vt 0.599950 0.491440
vt 0.626360 0.511248
vt 0.626360 0.537658
vt 0.599950 0.478235
vt 0.606553 0.484838
vt 0.599950 0.564068
vt 0.626360 0.564068
vt 0.613374 0.577054
vt 0.599950 0.590478
vt 0.626360 0.590478
vt 0.461246 0.591935
vt 0.487656 0.591935
vt 0.472932 0.606658
vt 0.461246 0.618345
vt 0.522224 0.476993
vt 0.495814 0.476993
vt 0.495814 0.450583
vt 0.495814 0.424173
vt 0.495814 0.397763
vt 0.495814 0.371353
vt 0.495814 0.344943
vt 0.522224 0.344943
vt 0.548635 0.344943
vt 0.575045 0.344943
vt 0.601455 0.344943
vt 0.627865 0.344943
vt 0.627865 0.371353
vt 0.627865 0.397763
vt 0.627865 0.424173
vt 0.627865 0.450583
vt 0.627865 0.476993
vt 0.601455 0.476993
vt 0.575045 0.476993
vt 0.548635 0.476993
vt 0.545221 0.478235
vt 0.571631 0.478235
vt 0.571631 0.492194
vt 0.545221 0.573598
vt 0.530497 0.480116
vt 0.518811 0.478235
vt 0.489368 0.480129
vt 0.490688 0.458621
vt 0.493329 0.480121
vt 0.464278 0.344943
vt 0.490688 0.381269
vt 0.464278 0.378442
vt 0.401137 0.576036
vt 0.399993 0.575802
vt 0.427547 0.607335
vt 0.427547 0.635575
vt 0.401137 0.650371
vt 0.344744 0.616859
vt 0.364551 0.575802
vt 0.371154 0.584705
vt 0.371154 0.652470
vt 0.344744 0.652470
vt 0.397564 0.652470
vt 0.516901 0.495330
vt 0.516901 0.590693
vt 0.490491 0.509289
vt 0.490491 0.495330
vt 0.465491 0.572575
vt 0.464081 0.574086
vt 0.464081 0.495330
vt 0.461440 0.574086
vt 0.437671 0.499752
vt 0.437671 0.495330
vt 0.654679 0.490083
vt 0.653359 0.591770
vt 0.628269 0.478235
vt 0.628269 0.490083
vn 0.001221 0.999510 -0.031288
vn -0.662538 0.353716 0.660249
vn -0.059841 0.371359 0.926559
vn 0.000000 0.802098 0.597192
vn 0.247896 0.447785 0.859090
vn -0.146732 0.449431 0.881182
vn -0.122785 0.453088 0.882970
vn 0.280556 0.577331 0.766796
vn 0.897426 0.382607 0.219634
vn 0.482636 0.727603 0.487500
vn 0.116026 0.982042 0.148770
vn 0.710595 0.702692 0.035766
vn -0.848488 0.523735 -0.075964
vn -0.898692 0.400848 -0.177968
vn -0.782709 0.543755 0.302815
vn -0.586440 0.722251 0.366663
vn -0.397164 0.410974 -0.820586
vn -0.273165 0.199835 0.940982
vn 0.751139 0.339442 -0.566189
vn 0.919153 0.391827 -0.040355
vn -0.088186 0.534278 0.840696
vn 0.690343 0.675165 0.259958
vn -0.919440 0.393119 -0.009420
vn 0.199709 0.383118 -0.901852
vn 0.849906 0.482759 0.211195
vn 0.877652 0.463245 0.123007
vn -0.041264 0.503988 -0.862725
vn -0.042819 0.509205 -0.859579
vn -0.621745 0.583172 -0.522823
vn -0.754798 0.642410 -0.132627
vn 0.132628 0.642410 0.754798
vn -0.071926 0.426183 -0.901773
vn 0.901773 0.426183 0.071926
vn -0.695390 0.496261 -0.519767
vn -0.052359 0.551065 -0.832818
vn -0.080996 0.993187 -0.083781
vn -0.344152 0.657366 -0.670395
vn -0.129801 0.853680 -0.504362
vn 0.017706 0.982953 -0.183004
vn -0.194204 0.478893 -0.856123
vn -0.957349 0.288933 0.000000
vn 0.959837 0.280559 0.000000
vn 0.653079 0.383373 -0.653079
vn 0.000000 0.280559 -0.959837
vn -0.059719 0.995028 0.079711
vn -0.137161 0.981741 -0.131800
vn 0.000000 -1.000000 0.000000
vn 0.000000 -1.000000 0.000000
vn -0.000000 -1.000000 0.000000
vn -0.000000 -1.000000 -0.000000
vn -0.000000 -1.000000 -0.000000
vn -0.000000 -1.000000 -0.000000
vn 0.000000 -1.000000 -0.000000
vn 0.000000 -1.000000 -0.000000
vn 0.000000 -1.000000 -0.000000
vn 0.000000 -1.000000 0.000000
vn 0.000000 -1.000000 0.000000
vn 0.000000 -1.000000 0.000000
vn -0.000000 -1.000000 0.000000
vn 0.000000 -1.000000 0.000000
vn 0.000000 -1.000000 -0.000000
vn 0.000000 -1.000000 -0.000000
vn 0.000000 -1.000000 0.000000
vn 0.000000 -1.000000 0.000000
vn 0.000000 -1.000000 0.000000
vn 0.000000 -1.000000 0.000000
vn 0.531263 0.847207 0.000000
s 1
g pPlane1
usemtl lambert4SG
f 8/79/1 46/80/2 2/76/3
f 3/77/4 9/78/5 2/76/3
f 2/76/3 9/78/5 8/79/1
f 3/25/4 4/23/6 9/26/5
f 9/26/5 4/23/6 10/24/7
f 4/23/6 5/21/8 10/24/7
f 10/24/7 5/21/8 11/22/9
f 45/18/10 6/19/11 12/20/12
f 8/100/1 14/101/13 7/99/14
f 7/99/14 14/101/13 13/102/15
f 14/31/13 8/34/1 15/32/16
f 8/34/1 9/35/5 15/32/16
f 35/82/17 34/83/18 36/84/19
f 11/9/9 12/10/12 16/6/20
f 37/28/21 39/29/22 38/27/23
f 38/27/23 39/29/22 40/30/24
f 16/6/20 22/2/25 21/1/26
f 19/36/27 20/37/28 26/38/29
f 42/42/30 41/41/31 44/46/32
f 44/46/32 41/41/31 43/45/33
f 23/50/34 24/47/35 47/49/36
f 25/39/37 30/44/38 24/47/35
f 24/47/35 30/44/38 29/48/39
f 26/38/29 31/43/40 25/39/37
f 25/39/37 31/43/40 30/44/38
f 9/85/5 10/86/7 15/87/16
f 35/82/17 15/87/16 34/83/18
f 10/86/7 34/83/18 15/87/16
f 16/6/20 36/12/19 11/9/9
f 36/12/19 34/17/18 11/9/9
f 10/16/7 11/9/9 34/17/18
f 16/6/20 21/1/26 36/12/19
f 35/11/17 36/12/19 20/13/28
f 36/12/19 21/1/26 20/13/28
f 20/111/28 19/112/27 35/110/17
f 15/109/16 35/110/17 19/112/27
f 18/105/41 13/102/15 38/104/23
f 38/104/23 13/102/15 37/103/21
f 13/102/15 14/101/13 37/103/21
f 39/29/22 37/28/21 19/33/27
f 14/31/13 15/32/16 37/28/21
f 15/32/16 19/33/27 37/28/21
f 39/89/22 19/90/27 40/88/24
f 40/88/24 19/90/27 24/92/35
f 19/90/27 25/91/37 24/92/35
f 24/107/35 23/108/34 40/106/24
f 40/106/24 23/108/34 38/104/23
f 18/105/41 38/104/23 23/108/34
f 26/38/29 20/37/28 42/42/30
f 42/42/30 20/37/28 41/41/31
f 20/37/28 21/40/26 41/41/31
f 43/4/33 22/2/25 27/3/42
f 44/14/32 43/4/33 33/8/43
f 32/96/44 31/97/40 44/95/32
f 31/97/40 26/93/29 44/95/32
f 26/93/29 42/94/30 44/95/32
f 11/9/9 45/15/10 12/10/12
f 1/52/45 2/53/3 46/54/2
f 23/50/34 47/49/36 28/51/46
f 5/21/8 45/18/10 11/22/9
f 5/21/8 6/19/11 45/18/10
f 7/81/14 46/80/2 8/79/1
f 1/52/45 46/54/2 7/55/14
f 47/49/36 24/47/35 29/48/39
f 28/51/46 47/49/36 29/48/39
f 33/8/43 43/4/33 27/3/42
f 44/95/32 33/98/43 32/96/44
s 13
f 1/57/47 7/58/48 2/56/49
f 28/62/50 29/63/51 23/61/52
f 33/67/53 27/68/54 32/66/55
f 6/72/56 5/73/57 12/71/58
f 2/56/49 7/58/48 3/75/59
f 7/58/48 13/59/60 3/75/59
f 13/59/60 18/60/61 3/75/59
f 3/75/59 18/60/61 4/74/62
f 18/60/61 23/61/52 4/74/62
f 23/61/52 29/63/51 4/74/62
f 29/63/51 30/64/63 4/74/62
f 30/64/63 31/65/64 4/74/62
f 31/65/64 32/66/55 4/74/62
f 32/66/55 27/68/54 4/74/62
f 27/68/54 22/69/65 4/74/62
f 22/69/65 17/70/66 4/74/62
f 17/70/66 12/71/58 4/74/62
f 12/71/58 5/73/57 4/74/62
s 1
f 19/36/27 26/38/29 25/39/37
f 16/6/20 17/7/67 22/2/25
f 16/6/20 12/10/12 17/7/67
f 21/1/26 43/4/33 41/5/31
f 21/1/26 22/2/25 43/4/33
