# This file uses centimeters as units for non-parametric coordinates.

mtllib stoneshed.mtl
g default
v -0.479031 0.058384 -0.497247
v -0.305285 0.159056 -0.497247
v 0.313800 0.497003 -0.497247
v 0.479031 0.497003 -0.497247
v -0.305285 0.051654 -0.497247
v 0.313800 0.388372 -0.497247
v -0.305285 -0.256536 -0.497247
v 0.313800 -0.256536 -0.497247
v 0.479022 -0.500000 -0.497247
v -0.305285 -0.432905 -0.497247
v 0.313800 -0.432905 -0.497247
v -0.479031 -0.500000 -0.497247
v -0.479031 -0.500000 0.497247
v 0.479031 -0.500000 0.497247
v -0.305285 -0.432905 0.497247
v 0.313800 -0.432905 0.497247
v -0.305285 -0.256536 0.497247
v 0.313800 -0.256536 0.497247
v -0.305285 0.051654 0.497247
v 0.313800 0.388372 0.497247
v 0.479031 0.497003 0.497247
v -0.305285 0.159056 0.497247
v 0.313800 0.497003 0.497247
v -0.305285 0.159056 0.372015
v 0.291624 0.484893 0.372015
v -0.305285 0.159056 -0.372015
v 0.291624 0.484893 -0.372015
v 0.479031 0.388372 0.372015
v 0.479031 0.388372 -0.372015
v 0.479031 -0.432905 0.372015
v 0.479014 -0.432905 -0.372015
v -0.305285 0.051654 0.372015
v -0.305285 0.051654 -0.372015
v -0.305285 -0.256536 0.372015
v -0.305285 -0.256536 -0.372015
v -0.305285 -0.432905 0.000000
v -0.305285 0.051654 -0.101424
v 0.291624 0.484893 -0.101424
v -0.305285 0.159056 -0.101424
v -0.305285 0.159056 0.101424
v 0.291624 0.484893 0.101424
v -0.305285 0.051654 0.101424
v 0.313800 -0.319771 0.497247
v -0.305285 -0.319771 0.497247
v -0.305285 -0.319771 -0.497247
v 0.313800 -0.319771 -0.497247
v -0.305285 -0.319771 -0.372015
v -0.305285 -0.319771 0.372015
v 0.313800 -0.146702 0.497247
v -0.305285 -0.146702 0.497247
v -0.305285 -0.146702 -0.497247
v 0.313800 -0.146702 -0.497247
v -0.305285 -0.146702 -0.372015
v -0.305285 -0.146702 0.372015
v 0.313800 -0.090973 0.497247
v -0.305285 -0.090973 0.497247
v -0.305285 -0.090973 -0.497247
v 0.313525 -0.090973 -0.497247
v -0.305285 -0.090973 -0.372015
v -0.305285 -0.090973 0.372015
v 0.313800 -0.090973 0.372015
v 0.313800 -0.146702 0.372015
v 0.313800 0.388372 0.372015
v 0.313800 0.388372 0.101424
v 0.313800 0.388372 -0.101424
v 0.313800 0.388372 -0.372015
v 0.313800 -0.319771 0.372015
v 0.313800 -0.256536 0.372015
v 0.313800 -0.432905 0.372015
v 0.313525 -0.090973 -0.372015
v 0.313800 -0.146702 -0.372015
v 0.313800 -0.256536 -0.372015
v 0.313800 -0.319771 -0.372015
v 0.313800 -0.432905 -0.372015
v -0.479031 0.058384 0.497247
vt 0.439390 0.270213
vt 0.439390 0.102290
vt 0.608319 0.102290
vt 0.608319 0.270213
vt 0.439390 0.300488
vt 0.608319 0.300488
vt 0.587046 0.300488
vt 0.541083 0.300488
vt 0.506626 0.300488
vt 0.460662 0.300488
vt 0.608319 0.402118
vt 0.587046 0.398476
vt 0.506626 0.398476
vt 0.541083 0.398476
vt 0.439390 0.402118
vt 0.460662 0.398476
vt 0.460662 0.369450
vt 0.506626 0.369450
vt 0.541083 0.369450
vt 0.587046 0.369450
vt 0.525916 0.122391
vt 0.610380 0.122391
vt 0.610380 0.156414
vt 0.589107 0.156414
vt 0.462724 0.156414
vt 0.589107 0.175430
vt 0.462724 0.175430
vt 0.441451 0.156414
vt 0.441451 0.122391
vt 0.589107 0.208461
vt 0.462724 0.208461
vt 0.610380 0.175430
vt 0.610380 0.208461
vt 0.589107 0.225220
vt 0.462724 0.225220
vt 0.441451 0.208461
vt 0.441451 0.175430
vt 0.543144 0.268112
vt 0.508687 0.268112
vt 0.589107 0.268112
vt 0.543144 0.369373
vt 0.508687 0.369373
vt 0.462724 0.268112
vt 0.610380 0.225220
vt 0.610380 0.268112
vt 0.589107 0.300411
vt 0.543144 0.300411
vt 0.508687 0.300411
vt 0.462724 0.300411
vt 0.441451 0.225220
vt 0.441451 0.268112
vt 0.610380 0.369373
vt 0.589107 0.369373
vt 0.441451 0.369373
vt 0.462724 0.369373
vt 0.096121 0.833591
vt 0.221579 0.833591
vt 0.242696 0.851867
vt 0.075005 0.851867
vt 0.221579 0.695417
vt 0.242696 0.684129
vt 0.075005 0.684129
vt 0.096121 0.695417
vt 0.421726 0.847522
vt 0.400453 0.847522
vt 0.400453 0.813500
vt 0.421726 0.813500
vt 0.421321 0.810958
vt 0.400048 0.810958
vt 0.400048 0.777928
vt 0.421321 0.777928
vt 0.393718 0.922323
vt 0.372446 0.922323
vt 0.372446 0.778170
vt 0.393718 0.778170
vt 0.395329 0.810958
vt 0.374056 0.810958
vt 0.374056 0.777928
vt 0.395329 0.777928
vt 0.395733 0.847522
vt 0.374461 0.847522
vt 0.374461 0.813500
vt 0.395733 0.813500
vt 0.399432 0.778170
vt 0.420704 0.778170
vt 0.420704 0.922323
vt 0.399432 0.922323
vt 0.076043 0.684429
vt 0.244970 0.684429
vt 0.244972 0.853358
vt 0.076043 0.853358
vt 0.075570 0.853191
vt 0.075708 0.834942
vt 0.244635 0.835443
vt 0.244497 0.853691
vt 0.774369 0.781625
vt 0.745234 0.735661
vt 0.745234 0.701205
vt 0.774369 0.655241
vt 0.745234 0.781625
vt 0.745234 0.655241
vt 0.097371 0.742585
vt 0.097371 0.713450
vt 0.223755 0.713454
vt 0.223755 0.742585
vt 0.160563 0.851744
vt 0.245027 0.742585
vt 0.245027 0.851744
vt 0.076099 0.851744
vt 0.076099 0.742585
vt 0.800990 0.655241
vt 0.800990 0.764400
vt 0.779717 0.764400
vt 0.779717 0.655241
vt 0.806703 0.764400
vt 0.806703 0.655241
vt 0.827976 0.655241
vt 0.827976 0.764400
vt 0.854962 0.655241
vt 0.854962 0.764400
vt 0.833690 0.764400
vt 0.833690 0.655241
vt 0.836333 0.876630
vt 0.836333 0.767471
vt 0.857606 0.767471
vt 0.857606 0.876630
vt 0.753637 0.788600
vt 0.753637 0.897710
vt 0.732364 0.897710
vt 0.732364 0.788600
vt 0.810341 0.876630
vt 0.810341 0.767471
vt 0.831614 0.767471
vt 0.831614 0.876630
vt 0.805621 0.767471
vt 0.805621 0.876630
vt 0.784349 0.876630
vt 0.784349 0.767471
vt 0.758357 0.893855
vt 0.758357 0.784696
vt 0.779629 0.784696
vt 0.779629 0.893855
vt 0.091416 0.270213
vt 0.122052 0.300488
vt 0.122052 0.268189
vt 0.231211 0.402118
vt 0.231211 0.369450
vt 0.122052 0.225297
vt 0.260345 0.402118
vt 0.122052 0.208537
vt 0.231163 0.225297
vt 0.231211 0.208537
vt 0.122052 0.175507
vt 0.260344 0.102290
vt 0.122052 0.156490
vt 0.231211 0.175507
vt 0.231211 0.156490
vt 0.122052 0.122467
vt 0.091416 0.102290
vt 0.231211 0.122467
vt 0.123590 0.122467
vt 0.092954 0.102290
vt 0.261883 0.102290
vt 0.232749 0.122467
vt 0.123590 0.156490
vt 0.232749 0.156490
vt 0.123590 0.175507
vt 0.232749 0.175507
vt 0.123590 0.208537
vt 0.232749 0.208537
vt 0.123590 0.225297
vt 0.232749 0.225297
vt 0.123590 0.268189
vt 0.261883 0.402118
vt 0.232749 0.369450
vt 0.092954 0.270213
vt 0.232749 0.402118
vt 0.123590 0.300488
vt 0.233295 0.173652
vt 0.233295 0.154635
vt 0.262426 0.120613
vt 0.124136 0.154635
vt 0.124136 0.173652
vt 0.233295 0.120613
vt 0.233295 0.206682
vt 0.233246 0.223442
vt 0.124136 0.206682
vt 0.124136 0.223442
vt 0.262429 0.367595
vt 0.233295 0.367595
vt 0.261704 0.120613
vt 0.232570 0.154635
vt 0.232570 0.173652
vt 0.232570 0.120613
vt 0.123411 0.154635
vt 0.123411 0.173652
vt 0.232570 0.206682
vt 0.232570 0.223442
vt 0.123411 0.206682
vt 0.123411 0.223442
vt 0.232570 0.367595
vt 0.261704 0.367595
vt 0.232843 0.371428
vt 0.115706 0.279512
vt 0.118369 0.311701
vt 0.231339 0.400678
vt 0.231455 0.400910
vt 0.118579 0.311813
vt 0.115950 0.279622
vt 0.232989 0.371662
vt 0.117921 0.311944
vt 0.230891 0.400921
vt 0.232394 0.371670
vt 0.115257 0.279755
vt 0.231249 0.400528
vt 0.118373 0.311431
vt 0.115744 0.279239
vt 0.232783 0.371279
vn 0.000000 0.000000 -1.000000
vn 0.000000 0.000000 -1.000000
vn 0.000000 0.000000 -1.000000
vn 0.000000 0.000000 -1.000000
vn 0.000000 0.000000 -1.000000
vn 0.000000 0.000000 -1.000000
vn 0.000000 0.000000 -1.000000
vn 0.000000 0.000000 -1.000000
vn 0.000000 0.000000 -1.000000
vn 0.000000 0.000000 -1.000000
vn 0.000002 0.000000 -1.000000
vn 0.000002 0.000000 -1.000000
vn 0.000002 0.000000 -1.000000
vn 0.000000 0.000000 -1.000000
vn 0.000000 0.000000 -1.000000
vn 0.000000 0.000000 -1.000000
vn 0.000000 0.000000 -1.000000
vn 0.000000 0.000000 -1.000000
vn 0.000000 0.000000 -1.000000
vn -0.000000 0.000000 -1.000000
vn -0.000000 0.000000 -1.000000
vn -0.000000 0.000000 -1.000000
vn 0.000000 0.000000 -1.000000
vn 0.000000 0.000000 -1.000000
vn 0.000000 0.000000 -1.000000
vn 0.000000 -1.000000 0.000000
vn 0.000000 -1.000000 0.000000
vn 0.000000 -1.000000 0.000000
vn 0.000000 -1.000000 0.000000
vn 0.000000 0.000000 1.000000
vn 0.000000 0.000000 1.000000
vn 0.000000 0.000000 1.000000
vn 0.000000 0.000000 1.000000
vn 0.000000 0.000000 1.000000
vn 0.000000 0.000000 1.000000
vn 0.000000 0.000000 1.000000
vn -0.000000 0.000000 1.000000
vn -0.000000 0.000000 1.000000
vn -0.000000 0.000000 1.000000
vn 0.000000 0.000000 1.000000
vn 0.000000 0.000000 1.000000
vn 0.000000 0.000000 1.000000
vn 0.000000 0.000000 1.000000
vn 0.000000 0.000000 1.000000
vn 0.000000 0.000000 1.000000
vn 0.000000 0.000000 1.000000
vn 0.000000 0.000000 1.000000
vn 0.000000 0.000000 1.000000
vn 0.000000 0.000000 1.000000
vn 0.000000 0.000000 1.000000
vn 0.000000 0.000000 1.000000
vn 0.000000 0.000000 1.000000
vn 0.000000 0.000000 1.000000
vn 0.000000 0.000000 1.000000
vn 0.000000 0.000000 1.000000
vn -0.000002 1.000000 0.000000
vn -0.000002 1.000000 0.000000
vn -0.000002 1.000000 0.000000
vn -0.000002 1.000000 0.000000
vn -1.000000 0.000000 0.000000
vn -1.000000 0.000000 0.000000
vn -1.000000 0.000000 0.000000
vn -1.000000 0.000000 0.000000
vn 0.000000 -1.000000 0.000000
vn 0.000000 -1.000000 0.000000
vn 0.000000 -1.000000 0.000000
vn 0.000000 -1.000000 0.000000
vn 1.000000 0.000000 0.000000
vn 1.000000 0.000000 0.000000
vn 1.000000 0.000000 0.000000
vn 1.000000 0.000000 0.000000
vn 1.000000 -0.000000 0.000000
vn 1.000000 -0.000000 0.000000
vn 1.000000 -0.000000 0.000000
vn 1.000000 -0.000000 0.000000
vn 0.000000 -1.000000 0.000000
vn 0.000000 -1.000000 0.000000
vn 0.000000 -1.000000 0.000000
vn 0.000000 1.000000 0.000000
vn 0.000000 1.000000 0.000000
vn 0.000000 1.000000 0.000000
vn 0.000000 1.000000 0.000000
vn 1.000000 0.000064 -0.000015
vn 1.000000 0.000064 -0.000015
vn 1.000000 0.000064 -0.000015
vn 1.000000 0.000064 -0.000015
vn 0.000000 0.000000 1.000000
vn 0.000000 0.000000 1.000000
vn 0.000000 0.000000 1.000000
vn 0.000000 0.000000 1.000000
vn 0.000000 0.000000 1.000000
vn 0.000000 0.000000 1.000000
vn 0.000000 0.000000 1.000000
vn 0.000000 0.000000 -1.000000
vn 0.000000 0.000000 -1.000000
vn 0.000000 0.000000 -1.000000
vn 0.000000 0.000000 -1.000000
vn 0.000000 0.000000 -1.000000
vn 0.000000 0.000000 -1.000000
vn 0.000000 0.000000 -1.000000
vn 0.000000 0.000000 -1.000000
vn 0.000000 0.000000 -1.000000
vn 0.000000 0.000000 -1.000000
vn 0.000001 0.000000 1.000000
vn 0.000001 0.000000 1.000000
vn 0.000001 0.000000 1.000000
vn 0.000001 0.000000 -1.000000
vn 0.000001 0.000000 -1.000000
vn 0.000001 0.000000 -1.000000
vn 0.000000 0.000000 1.000000
vn 0.000000 0.000000 1.000000
vn 0.000000 0.000000 1.000000
vn 0.000000 0.000000 1.000000
vn 0.000000 0.000000 1.000000
vn 0.000000 0.000000 1.000000
vn 0.000000 0.000000 1.000000
vn 0.000000 0.000000 1.000000
vn 0.000000 0.000000 1.000000
vn 0.000000 0.000000 1.000000
vn 0.000000 0.000000 -1.000000
vn 0.000000 0.000000 -1.000000
vn 0.000000 0.000000 -1.000000
vn 0.000000 0.000000 -1.000000
vn 0.000000 0.000000 -1.000000
vn 0.000000 0.000000 -1.000000
vn 0.000000 0.000000 -1.000000
vn 0.000001 0.000000 -1.000000
vn 0.000001 0.000000 -1.000000
vn 0.000001 0.000000 -1.000000
vn 0.000000 0.000000 1.000000
vn 0.000000 0.000000 1.000000
vn 0.000000 0.000000 1.000000
vn 0.000000 0.000000 -1.000000
vn 0.000000 0.000000 -1.000000
vn 0.000000 0.000000 -1.000000
vn 0.000000 0.000000 -1.000000
vn 0.000001 0.000000 1.000000
vn 0.000001 0.000000 1.000000
vn 0.000001 0.000000 1.000000
vn 0.000000 0.000000 -1.000000
vn 0.000000 0.000000 -1.000000
vn 0.000000 0.000000 -1.000000
vn 1.000000 -0.000014 0.000032
vn 1.000000 -0.000014 0.000032
vn 1.000000 -0.000014 0.000032
vn 1.000000 -0.000014 0.000032
vn 0.000000 -1.000000 0.000000
vn 0.000000 -1.000000 0.000000
vn 0.000000 -1.000000 0.000000
vn 0.000000 -1.000000 0.000000
vn 0.000000 1.000000 0.000000
vn 0.000000 1.000000 0.000000
vn 0.000000 1.000000 0.000000
vn 0.000000 1.000000 0.000000
vn 0.000000 0.000000 -1.000000
vn 0.000000 0.000000 -1.000000
vn 0.000000 0.000000 -1.000000
vn 0.477797 -0.878470 0.000000
vn 0.477797 -0.878470 0.000000
vn 0.477797 -0.878470 0.000000
vn 0.477797 -0.878470 0.000000
vn 0.477797 -0.878470 0.000000
vn 0.477797 -0.878470 0.000000
vn 0.477797 -0.878470 0.000000
vn 0.477797 -0.878470 0.000000
vn 0.477797 -0.878470 0.000000
vn 0.477797 -0.878470 0.000000
vn 0.477797 -0.878470 0.000000
vn 0.477797 -0.878470 0.000000
vn 0.000000 1.000000 0.000000
vn 0.000000 1.000000 0.000000
vn 0.000000 1.000000 0.000000
vn 0.000000 1.000000 0.000000
vn 0.000000 -1.000000 0.000000
vn 0.000000 -1.000000 0.000000
vn 0.000000 -1.000000 0.000000
vn 0.000000 -1.000000 0.000000
vn 0.000000 0.000000 -1.000000
vn 0.000000 0.000000 -1.000000
vn 0.000000 0.000000 -1.000000
vn 0.000000 0.000000 -1.000000
vn 0.000000 1.000000 0.000000
vn 0.000000 1.000000 0.000000
vn 0.000000 1.000000 0.000000
vn 0.000000 1.000000 0.000000
vn 0.000000 1.000000 0.000000
vn 0.000000 1.000000 0.000000
vn 0.000000 1.000000 0.000000
vn 0.000000 1.000000 0.000000
vn 0.000000 0.000000 1.000000
vn 0.000000 0.000000 1.000000
vn 0.000000 0.000000 1.000000
vn 0.000000 0.000000 1.000000
vn 0.000000 -1.000000 0.000000
vn 0.000000 -1.000000 0.000000
vn 0.000000 -1.000000 0.000000
vn 0.000000 -1.000000 0.000000
vn 0.000000 1.000000 0.000000
vn 0.000000 1.000000 0.000000
vn 0.000000 1.000000 0.000000
vn 0.000000 1.000000 0.000000
vn 0.000000 0.000000 1.000000
vn 0.000000 0.000000 1.000000
vn 0.000000 0.000000 1.000000
vn 0.000000 0.000000 1.000000
vn -0.000000 -1.000000 -0.000000
vn -0.000000 -1.000000 -0.000000
vn -0.000000 -1.000000 -0.000000
vn -0.000000 -1.000000 -0.000000
vn 0.000000 1.000000 0.000000
vn 0.000000 1.000000 0.000000
vn 0.000000 1.000000 0.000000
vn 0.000000 1.000000 0.000000
vn -1.000000 0.000000 0.000000
vn -1.000000 0.000000 0.000000
vn -1.000000 0.000000 0.000000
vn -1.000000 0.000000 0.000000
vn 0.000000 0.000000 -1.000000
vn 0.000000 0.000000 -1.000000
vn 0.000000 0.000000 -1.000000
vn -1.000000 0.000000 0.000000
vn -1.000000 0.000000 0.000000
vn -1.000000 0.000000 0.000000
vn -1.000000 0.000000 0.000000
vn -0.000001 0.000000 -1.000000
vn -0.000001 0.000000 -1.000000
vn -0.000001 0.000000 -1.000000
vn 1.000000 0.000000 0.000000
vn 1.000000 0.000000 0.000000
vn 1.000000 0.000000 0.000000
vn 1.000000 0.000000 0.000000
vn 1.000000 0.000000 0.000000
vn 1.000000 0.000000 0.000000
vn 1.000000 0.000000 0.000000
vn 1.000000 0.000000 0.000000
vn 1.000000 0.000000 0.000000
vn 1.000000 0.000000 0.000000
vn 1.000000 0.000000 0.000000
vn 1.000000 0.000000 0.000000
vn -1.000000 0.000574 0.000000
vn -1.000000 0.000574 0.000000
vn -1.000000 0.000574 0.000000
vn -1.000000 0.000574 0.000000
vn 0.000000 0.000000 1.000000
vn 0.000000 0.000000 1.000000
vn 0.000000 0.000000 1.000000
vn 0.000000 0.000000 1.000000
vn -1.000000 0.000000 0.000000
vn -1.000000 0.000000 0.000000
vn -1.000000 0.000000 0.000000
vn -1.000000 0.000000 0.000000
vn -0.000000 0.000000 1.000000
vn -0.000000 0.000000 1.000000
vn -0.000000 0.000000 1.000000
vn -1.000000 0.000000 0.000000
vn -1.000000 0.000000 0.000000
vn -1.000000 0.000000 0.000000
vn -1.000000 0.000000 0.000000
vn 0.000000 0.000000 1.000000
vn 0.000000 0.000000 1.000000
vn 0.000000 0.000000 1.000000
vn 1.000000 0.000000 0.000000
vn 1.000000 0.000000 0.000000
vn 1.000000 0.000000 0.000000
vn 1.000000 0.000000 0.000000
vn 0.000000 0.000000 -1.000000
vn 0.000000 0.000000 -1.000000
vn 0.000000 0.000000 -1.000000
vn 0.000000 0.000000 -1.000000
vn 0.000000 0.000000 1.000000
vn 0.000000 0.000000 1.000000
vn 0.000000 0.000000 1.000000
vn 0.000000 0.000000 1.000000
vn 0.000000 0.000000 -1.000000
vn 0.000000 0.000000 -1.000000
vn 0.000000 0.000000 -1.000000
vn 0.000000 0.000000 -1.000000
vn 1.000000 0.000000 0.000000
vn 1.000000 0.000000 0.000000
vn 1.000000 0.000000 0.000000
vn 1.000000 0.000000 0.000000
vn 0.000000 0.000000 1.000000
vn 0.000000 0.000000 1.000000
vn 0.000000 0.000000 1.000000
vn 0.000000 0.000000 1.000000
vn -0.974609 -0.223915 0.000000
vn -0.974609 -0.223915 0.000000
vn -0.974609 -0.223915 0.000000
vn -0.974609 -0.223915 0.000000
vn -0.974609 -0.223915 0.000000
vn -0.974609 -0.223915 0.000000
vn -0.974609 -0.223915 0.000000
vn -0.974609 -0.223915 0.000000
vn 0.000000 0.000000 1.000000
vn 0.000000 0.000000 1.000000
vn 0.000000 0.000000 1.000000
vn 0.000000 0.000000 1.000000
vn -1.000000 0.000000 0.000000
vn -1.000000 0.000000 0.000000
vn -1.000000 0.000000 0.000000
vn -1.000000 0.000000 0.000000
vn 0.000000 0.000000 -1.000000
vn 0.000000 0.000000 -1.000000
vn 0.000000 0.000000 -1.000000
vn 0.000000 0.000000 -1.000000
vn 1.000000 0.000000 0.000000
vn 1.000000 0.000000 0.000000
vn 1.000000 0.000000 0.000000
vn 1.000000 0.000000 0.000000
vn 0.000000 0.000000 1.000000
vn 0.000000 0.000000 1.000000
vn 0.000000 0.000000 1.000000
vn 0.000000 0.000000 -1.000000
vn 0.000000 0.000000 -1.000000
vn 0.000000 0.000000 -1.000000
vn 1.000000 0.000000 0.000000
vn 1.000000 0.000000 0.000000
vn 1.000000 0.000000 0.000000
vn 1.000000 0.000000 0.000000
vn 1.000000 0.000000 0.000000
vn 1.000000 0.000000 0.000000
vn 1.000000 0.000000 0.000000
vn 1.000000 0.000000 0.000000
vn 0.000000 -1.000000 0.000000
vn 0.000000 -1.000000 0.000000
vn 0.000000 -1.000000 0.000000
vn 1.000000 0.000000 0.000000
vn 1.000000 0.000000 0.000000
vn 1.000000 0.000000 0.000000
vn 0.000000 1.000000 0.000000
vn 0.000000 1.000000 0.000000
vn 0.000000 1.000000 0.000000
vn 1.000000 0.000000 0.000000
vn 1.000000 0.000000 0.000000
vn 1.000000 0.000000 0.000000
vn 1.000000 0.000000 0.000000
vn 1.000000 0.000000 0.000000
vn 1.000000 0.000000 0.000000
vn 1.000000 0.000000 0.000000
vn 1.000000 0.000000 0.000000
vn 1.000000 0.000000 0.000000
vn 1.000000 0.000000 0.000000
vn 1.000000 0.000000 0.000000
vn 1.000000 0.000000 0.000000
vn 1.000000 0.000000 0.000000
vn 1.000000 0.000000 0.000000
vn 1.000000 0.000000 0.000000
vn 1.000000 -0.000000 0.000000
vn 1.000000 -0.000000 0.000000
vn 1.000000 -0.000000 0.000000
vn 1.000000 -0.000000 0.000000
vn 1.000000 0.000000 0.000000
vn 1.000000 0.000000 0.000000
vn 1.000000 0.000000 0.000000
vn 0.000000 0.000000 -1.000000
vn 0.000000 0.000000 -1.000000
vn 0.000000 0.000000 -1.000000
vn 0.000000 0.000000 -1.000000
vn 0.000000 0.000000 -1.000000
vn 0.000000 0.000000 -1.000000
vn 0.000000 0.000000 -1.000000
vn 0.000000 0.000000 1.000000
vn -0.479139 0.877739 0.000015
vn -0.479139 0.877739 0.000015
vn -0.479139 0.877739 0.000015
vn -0.479139 0.877739 0.000015
vn -0.479136 0.877740 0.000000
vn -0.479136 0.877740 0.000000
vn -0.479136 0.877740 0.000000
vn -0.479136 0.877740 0.000000
vn -0.479139 0.877739 -0.000015
vn -0.479139 0.877739 -0.000015
vn -0.479139 0.877739 -0.000015
vn -0.479139 0.877739 -0.000015
vn -0.479268 0.877669 0.000000
vn -0.479268 0.877669 0.000000
vn -0.479268 0.877669 0.000000
vn -0.501341 0.865250 0.000000
vn -0.501341 0.865250 0.000000
vn -0.501341 0.865250 0.000000
vn -0.501341 0.865250 0.000000
vn -0.501341 0.865250 0.000000
vn -0.501341 0.865250 0.000000
vn -0.501341 0.865250 0.000000
vn -0.501341 0.865250 0.000000
vn -0.479268 0.877669 0.000000
vn -0.479268 0.877669 0.000000
vn -0.479268 0.877669 0.000000
s off
g pCube1
usemtl lambert10SG
f 1/143/1 2/144/2 5/145/3
f 2/144/4 3/146/5 6/147/6 5/145/7
f 3/146/8 4/149/9 6/147/10
f 1/143/11 51/150/12 7/153/13
f 52/152/14 9/154/15 8/156/16
f 1/143/17 45/155/18 10/158/19
f 46/157/20 9/154/21 11/160/22
f 10/158/23 12/159/24 1/143/25
f 12/88/26 9/89/27 14/90/28 13/91/29
f 15/161/30 13/162/31 14/163/32 16/164/33
f 13/162/34 15/161/35 44/165/36
f 16/164/37 14/163/38 43/166/39
f 13/162/40 17/167/41 50/169/42
f 18/168/43 14/163/44 49/170/45
s 1
f 75/176/46 19/173/47 22/178/48
s off
f 19/173/49 20/175/50 23/177/51 22/178/52
f 20/175/53 21/174/54 23/177/55
f 23/92/56 21/93/57 4/94/58 3/95/59
f 1/1/60 12/2/61 13/3/62 75/4/63
f 28/96/64 64/97/65 65/98/66 29/99/67
f 36/21/68 10/22/69 45/23/70 47/24/71
f 28/56/72 29/57/73 4/58/74 21/59/75
f 63/100/76 64/97/77 28/96/78
f 69/102/79 30/103/80 31/104/81 74/105/82
f 9/61/83 31/60/84 30/63/85 14/62/86
f 44/165/87 43/166/88 18/168/89 17/167/90
f 13/162/91 44/165/92 17/167/93
f 1/143/94 7/153/95 45/155/96
f 7/153/97 8/156/98 46/157/99 45/155/100
f 8/156/101 9/154/102 46/157/103
f 72/179/104 73/180/105 31/181/106
f 30/191/107 67/192/108 68/193/109
f 43/166/110 14/163/111 18/168/112
f 50/169/113 49/170/114 55/172/115 56/171/116
f 13/162/117 50/169/118 56/171/119
f 1/143/120 57/148/121 51/150/122
f 57/148/123 58/151/124 52/152/125 51/150/126
f 58/151/127 9/154/128 52/152/129
f 70/186/130 71/185/131 31/181/132
f 61/198/133 62/197/134 54/199/135 60/200/136
f 49/170/137 14/163/138 55/172/139
f 58/151/140 4/149/141 9/154/142
f 4/58/143 29/57/144 31/60/145 9/61/146
f 49/111/147 50/112/148 54/113/149 62/114/150
f 56/115/151 55/116/152 61/117/153 60/118/154
f 30/191/155 62/197/156 61/198/157
f 20/54/158 19/51/159 32/43/160 63/55/161
f 65/41/162 64/42/163 42/39/164 37/38/165
f 5/45/166 6/52/167 66/53/168 33/40/169
f 15/109/170 16/110/171 69/102/172 36/106/173
f 43/119/174 44/120/175 48/121/176 67/122/177
f 68/193/178 67/192/179 48/195/180 34/196/181
f 17/123/182 18/124/183 68/125/184 34/126/185
f 58/127/186 57/128/187 59/129/188 70/130/189
f 53/187/190 71/185/191 70/186/192 59/188/193
f 51/131/194 52/132/195 71/133/196 53/134/197
f 8/135/198 7/136/199 35/137/200 72/138/201
f 47/182/202 73/180/203 72/179/204 35/183/205
f 45/139/206 46/140/207 73/141/208 47/142/209
f 36/106/210 74/105/211 11/107/212 10/108/213
f 43/64/214 67/65/215 69/66/216 16/67/217
f 30/191/218 69/194/219 67/192/220
f 49/68/221 62/69/222 68/70/223 18/71/224
f 30/191/225 68/193/226 62/197/227
f 50/36/228 17/37/229 34/27/230 54/31/231
f 44/28/232 15/29/233 36/21/234 48/25/235
f 7/32/236 51/33/237 53/30/238 35/26/239
f 66/72/240 6/73/241 58/74/242 70/75/243
f 70/186/244 31/181/245 29/189/246 66/190/247
f 71/76/248 52/77/249 8/78/250 72/79/251
f 31/181/252 71/185/253 72/179/254
f 73/80/255 46/81/256 11/82/257 74/83/258
f 31/181/259 73/180/260 74/184/261
f 37/38/262 33/40/263 26/46/264 39/47/265
f 65/203/266 37/204/267 39/205/268 38/206/269
f 27/207/270 26/208/271 33/209/272 66/210/273
f 24/211/274 25/212/275 63/213/276 32/214/277
f 40/48/278 24/49/279 32/43/280 42/39/281
f 41/215/282 40/216/283 42/217/284 64/218/285
f 25/12/286 41/14/287 64/19/288 63/20/289
f 38/13/290 27/16/291 66/17/292 65/18/293
f 55/172/294 14/163/295 21/174/296 20/175/297
f 61/84/298 55/85/299 20/86/300 63/87/301
f 63/201/302 28/202/303 30/191/304 61/198/305
f 28/56/306 21/59/307 14/62/308 30/63/309
f 13/162/310 56/171/311 19/173/312
f 1/143/313 5/145/314 57/148/315
f 59/34/316 57/44/317 5/45/318 33/40/319
f 56/50/320 60/35/321 32/43/322 19/51/323
f 29/99/324 65/98/325 66/101/326
f 37/38/327 59/34/328 33/40/329
f 69/102/330 74/105/331 36/106/332
f 54/31/333 53/30/334 59/34/335 60/35/336
f 48/25/337 47/24/338 35/26/339 34/27/340
f 34/27/341 35/26/342 53/30/343 54/31/344
f 60/35/345 42/39/346 32/43/347
f 60/35/348 59/34/349 37/38/350 42/39/351
f 36/21/352 47/24/353 48/25/354
f 9/154/355 12/159/356 10/158/357 11/160/358
f 4/149/359 58/151/360 6/147/361
s 1
f 13/162/362 19/173/47 75/176/46
s off
f 3/15/363 2/5/364 26/10/365 27/16/366
f 38/13/367 39/9/368 40/8/369 41/14/370
f 22/6/371 23/11/372 25/12/373 24/7/374
s 2
f 3/15/375 27/16/376 38/13/377
s 3
f 40/8/378 75/4/379 22/6/380 24/7/381
f 2/5/382 1/1/383 39/9/384 26/10/385
f 39/9/384 1/1/383 75/4/379 40/8/378
s 2
f 3/15/375 38/13/377 41/14/386 23/11/387
f 23/11/387 41/14/386 25/12/388
